<?xml version="1.0" encoding="utf-8" standalone="no"?>
<!DOCTYPE svg PUBLIC "-//W3C//DTD SVG 1.1//EN" "http://www.w3.org/Graphics/SVG/1.1/DTD/svg11.dtd">
<!-- Created by SVGDeveloper 1.0 -->

	<svg version="1.1" id="jz" xmlns="http://www.w3.org/2000/svg" xmlns:xlink="http://www.w3.org/1999/xlink" x="0px" y="0px"
	 width="265px" height="265px" viewBox="0 0 265 265" enable-background="new 0 0 265 265" xml:space="preserve">
	<rect x="56" y="4.67" width="151.33" height="22.66" fill="#00FFFF" stroke="none" stroke-opacity="0" transform="matrix(0.9999999,0,0,0.9999999,2.333251,-7.827875E-06)" xmlns="http://www.w3.org/2000/svg" />
	<rect x="20.67" y="4" width="34.66" height="16.67" fill="#00FFFF" stroke="none" stroke-opacity="0"  />
	<rect x="4.67" y="24.67" width="15.33" height="30" fill="#00FFFF" stroke="none" stroke-opacity="0"  />
	<rect x="6.67" y="55.33" width="22" height="151.34" fill="#00FFFF" stroke="none" stroke-opacity="0" transform="matrix(0.9999999,0,0,0.9999999,-1.333392,0.6666661)" xmlns="http://www.w3.org/2000/svg" />
	<rect x="6" y="208.67" width="14" height="27.33" fill="#00FFFF" stroke="none" stroke-opacity="0" transform="matrix(0.9999999,0,0,0.9999999,-0.6666912,0)" xmlns="http://www.w3.org/2000/svg" />
	<rect x="54" y="229.33" width="152.67" height="21.34" fill="#00FFFF" stroke="none" stroke-opacity="0"  />
	<rect x="236.67" y="97.33" width="22.65999" height="153.34" fill="#00FFFF" stroke="none" stroke-opacity="0"  />
	<rect x="240" y="66.67" width="18" height="26" fill="#00FFFF" stroke="none" stroke-opacity="0"  />
	<rect x="248.67" y="38.67" width="10.00002" height="11.33" fill="#00FFFF" stroke="none" stroke-opacity="0"  />
	<ellipse cx="252.335" cy="56.665" rx="4.335007" ry="4.665001" fill="#00FFFF" stroke="none" stroke-opacity="0"  />
	<rect x="58" y="-1" width="164.67" height="5.33" fill="#CCCCCC" stroke="none" stroke-opacity="0"  />
	<rect x="-0.5" y="25" width="5.5" height="222" fill="#CCCCCC" stroke="none" stroke-opacity="0"  />
	<rect x="259.5" y="4" width="4.5" height="259.5" fill="#CCCCCC" stroke="none" stroke-opacity="0"  />
	<rect x="234" y="258" width="24" height="5.5" fill="#CCCCCC" stroke="none" stroke-opacity="0" transform="matrix(1,0,0,1,1.667,0)" xmlns="http://www.w3.org/2000/svg" />
	<rect x="6.5" y="241.5" width="15" height="5" fill="#CCCCCC" stroke="none" stroke-opacity="0" transform="matrix(0.9999999,0,0,0.9999999,-1.66673,0.3333303)" xmlns="http://www.w3.org/2000/svg" />
	<rect x="17.5" y="247.5" width="4" height="14.5" fill="#CCCCCC" stroke="none" stroke-opacity="0" transform="matrix(0.9999999,0,0,0.9999999,-1.666735,-0.6666706)" xmlns="http://www.w3.org/2000/svg" />
	<rect x="1" y="14.5" width="19" height="5" fill="#CCCCCC" stroke="none" stroke-opacity="0" transform="matrix(1.065,0,0,0.9999999,-1.304683,5.666991)" xmlns="http://www.w3.org/2000/svg" />
	<rect x="41" y="253.5" width="14" height="8" fill="#FFFF00" stroke="none" stroke-opacity="0"  />
	<rect x="41" y="253.5" width="14" height="8" fill="#FFFF00" stroke="none" stroke-opacity="0" transform="matrix(1,0,0,1,159.667,-0.167)"  />
    <rect x="16.67" y="-0.67" width="4" height="14.34" fill="#CCCCCC" stroke="none" stroke-opacity="0" transform="matrix(0.9999998,0,0,1.411,-0.6667855,1.045649)" xmlns="http://www.w3.org/2000/svg" />
<polyline points="111 74.33332,111.6666 85.33332,96.66664 99.66666,70.33331 101,70.33331 117,84.33331 117.6667,84.66664 145.6666,97.99998 146,108.3333 156.3333,109 170.3333,153.6666 170.3333,153.3333 158.6666,168.3333 144.3333,181.3333 143.6666,181.6666 137,197.6666 136.6667,198 108.3333,181 109,180.6666 102,168.3333 101.3333,154 83.99999,153.3333 73.66666" fill="#99FF33" stroke="none" stroke-opacity="0" />
<rect x="64.67" y="28.33" width="15.33" height="17.34" fill="#FF0000" stroke="none" stroke-opacity="0" />
<rect x="64.67" y="28.33" width="15.33" height="17.34" fill="#FF0000" stroke="none" stroke-opacity="0" transform="matrix(1,0,0,1,35.667,0.333)" />
<rect x="64.67" y="28.33" width="15.33" height="17.34" fill="#FF0000" stroke="none" stroke-opacity="0" transform="matrix(1,0,0,1,79.333,-0.333)" />
<rect x="64.67" y="28.33" width="15.33" height="17.34" fill="#FF0000" stroke="none" stroke-opacity="0" transform="matrix(1,0,0,1,114.333,0)" />
<rect x="64.67" y="28.33" width="15.33" height="17.34" fill="#FF0000" stroke="none" stroke-opacity="0" transform="matrix(1,0,0,1,-0.666,182)" />
<rect x="64.67" y="28.33" width="15.33" height="17.34" fill="#FF0000" stroke="none" stroke-opacity="0" transform="matrix(1,0,0,1,35.333,182.333)" />
<rect x="64.67" y="28.33" width="15.33" height="17.34" fill="#FF0000" stroke="none" stroke-opacity="0" transform="matrix(1,0,0,1,79.667,182)" />
<rect x="64.67" y="28.33" width="15.33" height="17.34" fill="#FF0000" stroke="none" stroke-opacity="0" transform="matrix(1,0,0,1,116,181.667)" />
<rect x="64.67" y="28.33" width="15.33" height="17.34" fill="#FF0000" stroke="none" stroke-opacity="0" transform="matrix(0.722,-0.692,0.692,0.722,16.509,108.667)" />
<rect x="64.67" y="28.33" width="15.33" height="17.34" fill="#FF0000" stroke="none" stroke-opacity="0" transform="matrix(0.62,0.784,-0.784,0.62,154.129,6.318)" />
<rect x="64.67" y="28.33" width="15.33" height="17.34" fill="#FF0000" stroke="none" stroke-opacity="0" transform="matrix(0.707,-0.707,0.707,0.707,93.693,182.66)" />
<rect x="64.67" y="28.33" width="15.33" height="17.34" fill="#FF0000" stroke="none" stroke-opacity="0" transform="matrix(0.669,0.744,-0.744,0.669,74.454,80.482)" />
<rect x="64.67" y="28.33" width="15.33" height="17.34" fill="#FF0000" stroke="none" stroke-opacity="0" transform="matrix(0.002,-1,1,0.002,2.843,153.253)" />
<rect x="64.67" y="28.33" width="15.33" height="17.34" fill="#FF0000" stroke="none" stroke-opacity="0" transform="matrix(0.002,-1,1,0.002,2.843,203.253)" />
<rect x="64.67" y="28.33" width="15.33" height="17.34" fill="#FF0000" stroke="none" stroke-opacity="0" transform="matrix(0.002,-1,1,0.002,2.843,252.92)" />
<image xlink:href="arrow.png" id="poi" x="-6" y="-6" width="12" height="12"  visibility="display"/>
</svg>
