<?xml version="1.0" encoding="utf-8" ?>
<!DOCTYPE svg PUBLIC "-//W3C//DTD SVG 1.1//EN" "http://www.w3.org/Graphics/SVG/1.1/DTD/svg11.dtd">
<!-- Created by SVGDeveloper 1.0 -->

  <svg version="1.1" id="jz" xmlns="http://www.w3.org/2000/svg" xmlns:xlink="http://www.w3.org/1999/xlink" x="0px" y="0px"
   width="30px" height="30px" viewBox="0 0 30 30" enable-background="new 0 0 30 30" xml:space="preserve">
  <rect x="6.6" y="0.6" width="16.9" height="1.8" fill="#00FFFF" stroke="none" stroke-opacity="0" transform="matrix(0.9999999,0,0,0.9999999,-1.698023E-05,0.4999948)" xmlns="http://www.w3.org/2000/svg" />
  <rect x="2.4" y="0.5" width="3.5" height="1.8" fill="#00FFFF" stroke="none" stroke-opacity="0" transform="matrix(1,0,0,0.7699999,0.4499948,0.6719973)" xmlns="http://www.w3.org/2000/svg" />
  <rect x="0.7" y="6.6" width="2.1" height="16.5" fill="#00FFFF" stroke="none" stroke-opacity="0" transform="matrix(0.9999999,0,0,0.9999999,0.4999657,0.399991)" xmlns="http://www.w3.org/2000/svg" />
  <rect x="0.4" y="2.4" width="1.3" height="3.3" fill="#00FFFF" stroke="none" stroke-opacity="0" transform="matrix(0.9999999,0,0,0.9999999,0.8999354,0.6999773)" xmlns="http://www.w3.org/2000/svg" />
  <rect x="0.9" y="24.1" width="1.2" height="2.9" fill="#00FFFF" stroke="none" stroke-opacity="0" transform="matrix(0.9999999,0,0,0.9999999,0.2999867,-4.949072E-06)" xmlns="http://www.w3.org/2000/svg" />
  <rect x="6.1" y="25.9" width="16.6" height="2.300001" fill="#00FFFF" stroke="none" stroke-opacity="0" transform="matrix(0.9999999,0,0,0.9999999,-2.980232E-06,-0.1000008)" xmlns="http://www.w3.org/2000/svg" />
  <rect x="26.9" y="11.5" width="1.9" height="15.8" fill="#00FFFF" stroke="none" stroke-opacity="0" transform="matrix(0.9999999,0,0,0.9999999,-0.100076,-2.85676E-05)" xmlns="http://www.w3.org/2000/svg" />
  <rect x="27.1" y="7.7" width="1.5" height="2.400001" fill="#00FFFF" stroke="none" stroke-opacity="0" transform="matrix(0.9999999,0,0,0.9999999,-0.1000715,0.3999728)" xmlns="http://www.w3.org/2000/svg" />
  <ellipse cx="28.1" cy="5.4" rx="0.6999998" ry="0.7" fill="#FFFF00" stroke="none" stroke-opacity="0" transform="matrix(0.9999999,0,0,0.9999999,-1.026905E-05,-0.3000042)" xmlns="http://www.w3.org/2000/svg" />
  <rect x="2.3" y="-0.2" width="22" height="0.7" fill="#CCCCCC" stroke="none" stroke-opacity="0" transform="matrix(0.786,0,0,0.9999999,4.694985,0.3499965)" xmlns="http://www.w3.org/2000/svg" />
  <rect x="-0.1" y="1.8" width="1" height="25.4" fill="#CCCCCC" stroke="none" stroke-opacity="0" transform="matrix(0.5299999,0,0,1.005,0.1379845,0.6239933)" xmlns="http://www.w3.org/2000/svg" />
  <rect x="1.6" y="-0.2" width="0.8000001" height="2.4" fill="#CCCCCC" stroke="none" stroke-opacity="0" transform="matrix(0.7039999,0,0,1,0.9426898,0.8499807)" xmlns="http://www.w3.org/2000/svg" />
  <rect x="0" y="1.5" width="1.5" height="0.9000001" fill="#CCCCCC" stroke="none" stroke-opacity="0" transform="matrix(1,0,0,0.6799999,0.5999376,1.423934)" xmlns="http://www.w3.org/2000/svg" />
  <rect x="0" y="27.3" width="2.6" height="0.8000011" fill="#CCCCCC" stroke="none" stroke-opacity="0" transform="matrix(1,0,0,0.806,0.04999861,5.574)" xmlns="http://www.w3.org/2000/svg" />
  <rect x="1.7" y="28.3" width="0.8999999" height="1.400002" fill="#CCCCCC" stroke="none" stroke-opacity="0" transform="matrix(0.7499999,0,0,0.9999999,0.6869706,-0.1000002)" xmlns="http://www.w3.org/2000/svg" />
  <rect x="25.4" y="28.4" width="4.6" height="0.8999996" fill="#CCCCCC" stroke="none" stroke-opacity="0" transform="matrix(0.9999999,0,0,0.6999999,-0.150006,8.454999)" xmlns="http://www.w3.org/2000/svg" />
  <rect x="28.5" y="0.1" width="1.4" height="28.3" fill="#CCCCCC" stroke="none" stroke-opacity="0" transform="matrix(0.47,0,0,1,15.776,0)" xmlns="http://www.w3.org/2000/svg" />
  <polyline fill="#CCCCCC" stroke="none" stroke-opacity="0" />
  <polygon points="12.75 7.799999" fill="#00FF00" stroke="none" stroke-opacity="0" />
  <rect x="12.9" y="8.8" width="3.35" height="9.999999" fill="#00FF00" stroke="none" stroke-opacity="0" transform="matrix(0.9999999,0,0,0.9999999,0.1499941,0.04999668)" xmlns="http://www.w3.org/2000/svg" />
  <rect x="9.2" y="11.75" width="11.65" height="3.55" fill="#00FF00" stroke="none" stroke-opacity="0" transform="matrix(0.9999999,0,0,0.9999999,-0.2000285,0.4499924)" xmlns="http://www.w3.org/2000/svg" />
  <rect x="4.4" y="28.6" width="1.7" height="0.8999996" fill="#FF0000" stroke="none" stroke-opacity="0" transform="matrix(0.9999999,0,0,0.9999999,0.999902,0.15)" xmlns="http://www.w3.org/2000/svg" />
  <rect x="22.65" y="28.5" width="1.6" height="0.8999996" fill="#FF0000" stroke="none" stroke-opacity="0" transform="matrix(0.9999999,0,0,0.9999999,-1.000028,0.1000001)" xmlns="http://www.w3.org/2000/svg" />
<image xlink:href="arrow.png" id="poi" x="-1.5" y="-1.5" width="3" height="3"  visibility="display"/>
</svg>
