<?xml version="1.0" encoding="utf-8" standalone="no"?>
<!DOCTYPE svg PUBLIC "-//W3C//DTD SVG 1.1//EN" "http://www.w3.org/Graphics/SVG/1.1/DTD/svg11-flat-20030114.dtd">
<!-- Created by SVGDeveloper 1.0 -->
<svg version="1.1" xmlns="http://www.w3.org/2000/svg" xmlns:xlink="http://www.w3.org/1999/xlink" width="2051px" height="2033px" enable-background="new 0 0 2051 2033" xml:space="preserve" >

<image x="0" y="0" width="2051" height="2033" xlink:href="map216.png"  />

<image xlink:href="arrow.png" id="currentLocation" x="0" y="0" width="44" height="44"  visibility="display"/>

<g id="Rooms">
  <a id="R225" xlink:href="#" >
    <g>

<path d="M 1835 533 C 1832 539.6666 1835.167 560.8333 1842 571 C 1848.833 581.1666 1869.333 594.3333 1876 594 C 1882.667 593.6666 1880.167 577.1666 1882 569 C 1883.833 560.8333 1890.667 551.3333 1887 545 C 1883.333 538.6666 1868.667 532.9999 1860 531 C 1851.333 529 1838 526.3333 1835 533 Z" fill="#000000" stroke="none" stroke-opacity="0" />
    </g>
  </a>
  <a id="R200" xlink:href="#" >
    <g>
<path d="M 418 1480 C 415.5 1492.5 411.8333 1539.667 425 1555 C 438.1666 1570.333 483.1666 1575.833 497 1572 C 510.8333 1568.167 505.6666 1545.5 508 1532 C 510.3333 1518.5 513.1666 1499.333 511 1491 C 508.8333 1482.667 498.9999 1483.5 495 1482 C 491 1480.5 489.3333 1482.167 487 1482 C 484.6666 1481.833 484.3333 1481.167 481 1481 C 477.6666 1480.833 470.3333 1481.167 467 1481 C 463.6666 1480.833 465.4999 1480.167 461 1480 C 456.5 1479.833 447.1666 1480 440 1480 C 432.8333 1480 420.4999 1467.5 418 1480 Z" fill="#000000" stroke="none" stroke-opacity="0" />
    </g>
  </a>
</g>

<g id="Doors">
    <line id="R225_1_" fill="none" stroke="#00FF00" x1="1870" y1="450" x2="1874" y2="450"/>
    <line id="R200_1_" fill="none" stroke="#00FF00" x1="340" y1="1500" x2="340" y2="1520"/>
</g>

<g id="Paths">
  <line fill="none" stroke="#00FFFF" x1="1874" y1="450" x2="470" y2="450" />
  <line fill="none" stroke="#00FFFF" x1="470" y1="450" x2="470" y2="1000"/>
  <line fill="none" stroke="#00FFFF" x1="470" y1="1000" x2="340" y2="1000"/>
  <line fill="none" stroke="#00FFFF" x1="340" y1="1000" x2="340" y2="1500"/>
</g>
</svg>