<?xml version="1.0" encoding="utf-8" standalone="no"?>
<!DOCTYPE svg PUBLIC "-//W3C//DTD SVG 1.1//EN" "http://www.w3.org/Graphics/SVG/1.1/DTD/svg11-flat-20030114.dtd">
<!-- Created by SVGDeveloper 1.0 -->
<svg version="1.1" xmlns="http://www.w3.org/2000/svg" xmlns:xlink="http://www.w3.org/1999/xlink" width="7000px" height="5390px" enable-background="new 0 0 7000 5390" xml:space="preserve" >

<g id="Base">
  <path id="svg_3" d="m1157.30591,954.7774" opacity="0.5" stroke-width="1.5" stroke="#000" fill="#fff"/>
   <path id="svg_4" d="m1168.87891,948.99091l1996.35278,-781.18152l150.44995,433.98969l-2013.7124,746.4624l-52.07886,-121.51721l-75.22485,-34.71912l-5.7865,-52.07874l17.35962,-63.65186l-17.35974,-127.30365z" stroke-width="1.5" stroke="#000" fill="#fff"/>
   <path id="svg_5" d="m1313.54211,1348.26147l121.51733,-52.07886l75.22485,208.31519l190.95544,-75.22498l104.15759,150.44983l-5.78662,115.73059l-196.74194,104.15747l57.86523,185.16907l-115.73059,40.50562l-231.4613,-677.02393z" stroke-width="1.5" stroke="#000" fill="#fff"/>
   <path id="svg_6" d="m1556.57642,2031.07202l1863.2627,-925.84485l121.51709,393.48401l-1805.39722,954.77734l-75.22498,-144.66309l-69.43835,-17.35962l-17.3595,-75.22485l0,-109.94409l-17.35974,-75.22485z" stroke-width="1.5" stroke="#000" fill="#fff"/>
   <path fill="#fff" stroke="#000" stroke-width="1.5" opacity="0.5" d="m3218.66187,268.74265" id="svg_7"/>
   <path fill="#fff" stroke="#000" stroke-width="1.5" d="m3205.71338,264.79529l116.9043,335.2196l35.21216,298.59894l57.7478,187.32867l133.80615,423.9541l126.76392,435.22205l302.82422,498.604l60.56494,139.43994l2.81689,130.98926l-652.12866,900.02246l238.03394,152.11646l238.03418,-330.99414l380.29126,-545.08398l-59.15674,-43.66309l33.80371,-49.29712l57.74805,22.53589l43.66309,-18.3103l35.21191,-33.80371l16.90186,-52.11401l-33.80371,-101.41089l-69.01563,-45.07153l-14.08496,-146.48242l-470.43408,-1000.0249l-63.38184,-264.79529l-46.47998,-560.57733l-166.20142,-426.77113l-305.64136,94.36852l0,-0.00003z" id="svg_8"/>
   <path fill="#fff" stroke="#000" stroke-width="1.5" d="m1736.66284,2457.80762l132.39758,-70.42432l39.43762,90.14307l207.04736,-90.14307l112.67896,153.5249l7.04248,97.18555l-4.22559,47.88843l-198.59644,114.0874l50.70557,92.95996l-121.12988,83.10059l-225.35767,-518.32251z" id="svg_9"/>
   <path fill="#fff" stroke="#000" stroke-width="1.5" d="m1967.65454,2984.5813l36.62061,112.67871l-29.57825,64.79028l28.16968,115.49585l88.73474,12.67627l80.28369,126.76392l1725.39478,-1083.12549l-226.76611,-376.0658l-378.88257,211.27283l-1323.97656,815.51343z" id="svg_10"/>
   <path fill="#fff" stroke="#000" stroke-width="1.5" d="m2264.84497,3370.50635l95.7771,-64.79053l60.5647,85.91772l214.08984,-125.35522l173.2439,270.4292l-222.54077,277.47168l-281.69727,-332.40259l19.71899,-35.21216l-59.15649,-76.05811z" id="svg_11"/>
   <path fill="#fff" stroke="#000" stroke-width="1.5" d="m3248.7085,3561.54736l-62.56763,288.77393l38.50342,264.70947l96.25781,163.63867l86.63232,144.38721l250.271,129.94824l457.22534,28.87744l240.64551,-120.32227l192.51611,-255.08398l-380.21924,-192.51611l-48.12939,67.38062l-144.38696,96.25806l-288.77393,-72.19336l-62.56787,-110.69678l-9.62573,-221.39355l-365.78076,-211.76758z" id="svg_12"/>
   <path fill="#fff" stroke="#000" stroke-width="1.5" d="m4182.41162,3994.7085l240.64502,120.32227l192.51611,-620.86401l211.76758,154.0127l-43.31592,96.25806l96.25781,72.1936l62.56787,-77.00635l192.51611,129.94824l-86.63232,168.45166l120.32275,48.12891l33.68994,-67.38062l616.05176,404.28369l110.69678,-38.50293l154.0127,-269.52295l-447.6001,-173.26416l-163.63818,-110.69678l-240.64551,-303.21289l-144.38672,-115.50952l-274.33545,-206.95483l-110.69678,-81.81934l-43.31641,28.87744l-48.12891,-105.88379l-134.76123,-4.81299l-38.50293,67.38062l24.06445,125.1355l115.50928,77.00635l-24.06445,33.69043l-144.38672,-52.94189l-226.20654,702.68359z" id="svg_13"/>
   <path fill="#fff" stroke="#000" stroke-width="1.5" d="m4976.54053,4745.521l1241.72852,-462.03857l28.87744,129.94873l101.0708,-4.81299l24.06445,86.63184l-81.81934,19.25195l33.69043,182.89014l-1222.47705,452.4126l-115.50977,-86.63184l-43.31592,-115.50977l33.69043,-202.14209z" id="svg_14"/>
</g>
<g id="Rooms">
  <a id="R215" xlink:href="#" >
    <g>
  <path id="svg_22" d="m5426.55225,4614.09131l97.3208,-38.23682l36.25684,80.29639l-41.98145,13.38281l-7.6333,-21.03027l-22.89893,19.11768l7.6333,15.29492l-32.44043,15.29443l-36.25684,-84.11914z" stroke-width="1.5" stroke="#000" fill="#0000ff"/>
    </g>
  </a>
  <a id="R208" xlink:href="#" >
    <g>
  <path id="svg_24" d="m2622.69702,1821.53894l63.77393,109.61108l123.56152,-71.74548l-67.75952,-111.60413l-23.91528,13.95044l9.96484,19.92932l-21.92236,15.94348l-15.94336,-23.91516l-67.75977,47.83044z" stroke-width="1.5" stroke="#000" fill="#00bf5f"/>
    </g>
  </a>
</g>

<g id="Doors">
    <line id="R215_1_" fill="none" stroke="#00FF00" x1="2663" y1="1684" x2="2661" y2="1682"/>
    <line id="R208_1_" fill="none" stroke="#00FF00" x1="5547" y1="4775" x2="5545" y2="4773"/>
</g>

<g id="Paths">

  <line fill="none" stroke="#00FFFF" x1="2661" y1="1682" x2="3614" y2="1218" />
  <line fill="none" stroke="#00FFFF" x1="3614" y1="1218" x2="3953" y2="2013"/>
  <line fill="none" stroke="#00FFFF" x1="3953" y1="2013" x2="4214" y2="2661"/>
  <line fill="none" stroke="#00FFFF" x1="2661" y1="1682" x2="1733" y2="2162" />
  <line fill="none" stroke="#00FFFF" x1="1733" y1="2162" x2="2146" y2="3193" />
  <line fill="none" stroke="#00FFFF" x1="2146" y1="3193" x2="3953" y2="2013" />
  <line fill="none" stroke="#00FFFF" x1="4214" y1="2661" x2="3410" y2="3874"/>
  <line fill="none" stroke="#00FFFF" x1="3410" y1="3874" x2="3744" y2="4463"/>
  <line fill="none" stroke="#00FFFF" x1="3744" y1="4463" x2="4194" y2="4338"/>
  <line fill="none" stroke="#00FFFF" x1="4194" y1="4338" x2="4528" y2="3415"/>
  <line fill="none" stroke="#00FFFF" x1="4528" y1="3415" x2="5886" y2="4219"/>
  <line fill="none" stroke="#00FFFF" x1="5886" y1="4219" x2="5952" y2="4635"/>
  <line fill="none" stroke="#00FFFF" x1="5952" y1="4635" x2="5547" y2="4775"/>
</g>

<image xlink:href="arrow.png" id="currentLocation" x="0" y="0" width="44" height="44"  visibility="display"/>
</svg>